<svg width="17" height="16" viewBox="0 0 17 16" fill="none" xmlns="http://www.w3.org/2000/svg">
<g clip-path="url(#clip0_606_1055)">
<path d="M11.8687 0.888885H7.60199C6.7226 0.891236 5.87997 1.24192 5.25856 1.86416C4.63716 2.4864 4.2876 3.3295 4.28643 4.20889H3.33532C2.70741 4.21006 2.10556 4.46002 1.66156 4.90401C1.21756 5.34801 0.967605 5.94987 0.966431 6.57777V8C0.966431 8.12612 1.01653 8.24708 1.10572 8.33627C1.1949 8.42545 1.31586 8.47555 1.44199 8.47555H8.07754C8.20367 8.47555 8.32463 8.42545 8.41381 8.33627C8.50299 8.24708 8.5531 8.12612 8.5531 8V6.57777C8.55192 5.94987 8.30197 5.34801 7.85797 4.90401C7.41397 4.46002 6.81212 4.21006 6.18421 4.20889H5.2331C5.23427 3.58098 5.48423 2.97912 5.92823 2.53513C6.37222 2.09113 6.97408 1.84117 7.60199 1.84H11.8687C12.4966 1.84117 13.0984 2.09113 13.5424 2.53513C13.9864 2.97912 14.2364 3.58098 14.2375 4.20889V14.6356H15.1887V4.20889C15.1875 3.32873 14.8373 2.48496 14.2149 1.86259C13.5926 1.24022 12.7488 0.890061 11.8687 0.888885ZM6.17976 5.15555C6.55696 5.15555 6.91871 5.30539 7.18543 5.57211C7.45215 5.83883 7.60199 6.20058 7.60199 6.57777V7.52444H1.9131V6.57777C1.9131 6.20058 2.06294 5.83883 2.32966 5.57211C2.59637 5.30539 2.95812 5.15555 3.33532 5.15555H6.17976Z" fill="#181A20"/>
<path d="M1.44202 9.89777H2.38868V13.2178H1.44202V9.89777Z" fill="#181A20"/>
<path d="M3.33533 9.89777H4.28199V11.32H3.33533V9.89777Z" fill="#181A20"/>
<path d="M3.33533 12.7422H4.28199V14.64H3.33533V12.7422Z" fill="#181A20"/>
<path d="M5.23303 9.89777H6.1797V12.2667H5.23303V9.89777Z" fill="#181A20"/>
<path d="M5.23303 13.2133H6.1797V14.16H5.23303V13.2133Z" fill="#181A20"/>
<path d="M7.13086 9.89777H8.07753V11.32H7.13086V9.89777Z" fill="#181A20"/>
<path d="M7.13086 12.2667H8.07753V15.1111H7.13086V12.2667Z" fill="#181A20"/>
</g>
<defs>
<clipPath id="clip0_606_1055">
<rect width="16" height="16" fill="white" transform="translate(0.0775146)"/>
</clipPath>
</defs>
</svg>
