<svg width="17" height="16" viewBox="0 0 17 16" fill="none" xmlns="http://www.w3.org/2000/svg">
 <g clip-path="url(#clip0_606_1066)">
 <path d="M14.7709 8.88887L14.7131 8.83998V4.20887C14.7131 3.5802 14.4637 2.9772 14.0195 2.53224C13.5754 2.08728 12.9729 1.83672 12.3442 1.83554H3.81087C3.1822 1.83672 2.57967 2.08728 2.13555 2.53224C1.69142 2.9772 1.44199 3.5802 1.44199 4.20887V8.84443L1.38421 8.88887C1.11708 9.15674 0.966873 9.51947 0.966431 9.89776V13.6889C0.966431 13.815 1.01653 13.936 1.10572 14.0251C1.1949 14.1143 1.31586 14.1644 1.44199 14.1644H3.81087C3.88928 14.1642 3.96643 14.1447 4.03544 14.1074C4.10446 14.0702 4.1632 14.0165 4.20643 13.9511L5.01532 12.7422H11.1442L11.9531 13.9511C11.9963 14.0165 12.0551 14.0702 12.1241 14.1074C12.1931 14.1447 12.2702 14.1642 12.3487 14.1644H14.7175C14.8429 14.1633 14.9627 14.1126 15.0509 14.0236C15.1392 13.9345 15.1887 13.8142 15.1887 13.6889V9.89776C15.1882 9.51947 15.038 9.15674 14.7709 8.88887ZM3.81087 2.78665H12.3442C12.7214 2.78665 13.0832 2.93649 13.3499 3.20321C13.6166 3.46993 13.7664 3.83168 13.7664 4.20887V7.06665C13.553 6.76333 13.2683 6.51713 12.9374 6.34973C12.6065 6.18232 12.2394 6.09885 11.8687 6.10665H4.28643C3.97519 6.10579 3.66686 6.16662 3.37926 6.28563C3.09167 6.40463 2.83051 6.57945 2.61088 6.79999C2.53041 6.88335 2.45614 6.97248 2.38865 7.06665V4.20887C2.38865 3.83168 2.53849 3.46993 2.80521 3.20321C3.07193 2.93649 3.43368 2.78665 3.81087 2.78665ZM13.2909 8.47554H2.86421C2.86421 8.09834 3.01405 7.7366 3.28077 7.46988C3.54749 7.20316 3.90923 7.05332 4.28643 7.05332H11.8687C12.2458 7.05332 12.6076 7.20316 12.8743 7.46988C13.141 7.7366 13.2909 8.09834 13.2909 8.47554ZM14.2375 13.2178H12.5931L11.7887 12C11.7449 11.9354 11.6859 11.8826 11.617 11.8461C11.548 11.8097 11.4711 11.7908 11.3931 11.7911H4.75754C4.67953 11.7908 4.60265 11.8097 4.53367 11.8461C4.46469 11.8826 4.40573 11.9354 4.36199 12L3.55754 13.2133H1.9131V9.89776C1.9131 9.83531 1.9254 9.77347 1.9493 9.71578C1.9732 9.65808 2.00822 9.60565 2.05238 9.56149C2.09654 9.51734 2.14897 9.48231 2.20667 9.45841C2.26436 9.43451 2.3262 9.42221 2.38865 9.42221H13.7664C13.8926 9.42221 14.0135 9.47231 14.1027 9.56149C14.1919 9.65068 14.242 9.77164 14.242 9.89776L14.2375 13.2178Z" fill="#181A20"/>
 </g>
 <defs>
 <clipPath id="clip0_606_1066">
 <rect width="16" height="16" fill="white" transform="translate(0.0775146)"/>
 </clipPath>
 </defs>
</svg>