<svg width="17" height="16" viewBox="0 0 17 16" fill="none" xmlns="http://www.w3.org/2000/svg">
<g clip-path="url(#clip0_606_1046)">
<path d="M6.65527 0.888885H9.49972V1.83555H6.65527V0.888885Z" fill="#181A20"/>
<path d="M14.242 13.6889C14.242 13.815 14.1919 13.936 14.1027 14.0252C14.0135 14.1143 13.8926 14.1644 13.7664 14.1644H11.8687V15.1111H13.7664C14.1436 15.1111 14.5054 14.9613 14.7721 14.6945C15.0388 14.4278 15.1887 14.0661 15.1887 13.6889V11.7911H14.242V13.6889Z" fill="#181A20"/>
<path d="M13.7664 0.888885H11.8687V1.83555H13.7664C13.8289 1.83555 13.8907 1.84785 13.9484 1.87175C14.0061 1.89565 14.0585 1.93068 14.1027 1.97484C14.1469 2.019 14.1819 2.07142 14.2058 2.12912C14.2297 2.18682 14.242 2.24866 14.242 2.31111V4.20889H15.1887V2.31111C15.1887 1.93391 15.0388 1.57216 14.7721 1.30544C14.5054 1.03873 14.1436 0.888885 13.7664 0.888885Z" fill="#181A20"/>
<path d="M1.9131 2.31111C1.9131 2.24866 1.9254 2.18682 1.9493 2.12912C1.9732 2.07142 2.00822 2.019 2.05238 1.97484C2.09654 1.93068 2.14897 1.89565 2.20667 1.87175C2.26436 1.84785 2.3262 1.83555 2.38865 1.83555H4.28643V0.888885H2.38865C2.01146 0.888885 1.64971 1.03873 1.38299 1.30544C1.11627 1.57216 0.966431 1.93391 0.966431 2.31111V4.20889H1.9131V2.31111Z" fill="#181A20"/>
<path d="M14.2419 6.57779H15.1886V9.42223H14.2419V6.57779Z" fill="#181A20"/>
<path d="M11.8687 7.52444V4.67999C11.8687 4.55387 11.8186 4.43291 11.7294 4.34372C11.6402 4.25454 11.5192 4.20444 11.3931 4.20444H8.54865V5.15555H10.2464L7.73532 7.66666C7.54562 7.5741 7.3375 7.52549 7.12643 7.52444H2.38865C2.22619 7.52634 2.06528 7.55641 1.9131 7.61333V6.57777H0.966431V13.6889C0.966431 14.0661 1.11627 14.4278 1.38299 14.6945C1.64971 14.9613 2.01146 15.1111 2.38865 15.1111H9.49976V14.1644H8.46421C8.52112 14.0123 8.5512 13.8513 8.5531 13.6889V8.94666C8.55205 8.73559 8.50344 8.52747 8.41088 8.33777L10.922 5.82666V7.52444H11.8687ZM2.38865 14.1644C2.26253 14.1644 2.14157 14.1143 2.05238 14.0251C1.9632 13.936 1.9131 13.815 1.9131 13.6889V8.94666C1.91427 8.82131 1.96489 8.70149 2.05395 8.61326C2.143 8.52504 2.26329 8.47554 2.38865 8.47555H7.13088C7.257 8.47555 7.37796 8.52565 7.46714 8.61484C7.55633 8.70402 7.60643 8.82498 7.60643 8.9511V13.6889C7.60643 13.815 7.55633 13.936 7.46714 14.0251C7.37796 14.1143 7.257 14.1644 7.13088 14.1644H2.38865Z" fill="#181A20"/>
</g>
<defs>
<clipPath id="clip0_606_1046">
<rect width="16" height="16" fill="white" transform="translate(0.0775146)"/>
</clipPath>
</defs>
</svg>
