<?xml version="1.0" encoding="UTF-8"?>
<svg width="10" height="14" viewBox="0 0 10 14" fill="none" xmlns="http://www.w3.org/2000/svg">
<path d="M9.30475 6.84831C9.27416 6.77015 9.22065 6.70307 9.15125 6.65588C9.08184 6.60869 8.99979 6.58358 8.91586 6.58387H6.62142L7.28642 1.24442C7.29548 1.16064 7.27889 1.07608 7.23884 1.00193C7.19879 0.92778 7.13717 0.867541 7.06213 0.82918C6.9871 0.790819 6.90218 0.776145 6.81862 0.787101C6.73507 0.798056 6.6568 0.834124 6.59419 0.890532L0.340861 6.69664C0.280115 6.75369 0.237894 6.82766 0.219669 6.90897C0.201443 6.99028 0.208052 7.0752 0.238639 7.15271C0.269226 7.23023 0.322383 7.29677 0.391223 7.34373C0.460064 7.39069 0.541419 7.4159 0.62475 7.41609H2.92308L2.25419 12.7555C2.24389 12.8398 2.2596 12.9252 2.29923 13.0003C2.33885 13.0753 2.40048 13.1365 2.47586 13.1755C2.55192 13.2128 2.6374 13.2264 2.72127 13.2146C2.80514 13.2028 2.88356 13.1662 2.94642 13.1094L9.19975 7.30331C9.26076 7.24667 9.30337 7.17304 9.32209 7.09193C9.34081 7.01081 9.33477 6.92595 9.30475 6.84831ZM3.21475 11.7289L3.79808 7.0622C3.80523 7.00379 3.79991 6.94453 3.78247 6.88833C3.76504 6.83213 3.73588 6.78026 3.69692 6.73616C3.65796 6.69206 3.61009 6.65672 3.55647 6.63248C3.50286 6.60824 3.4447 6.59565 3.38586 6.59553H1.65919L6.32586 2.27109L5.74253 6.93775C5.73538 6.99616 5.7407 7.05542 5.75814 7.11162C5.77558 7.16783 5.80474 7.21969 5.84369 7.26379C5.88265 7.30789 5.93052 7.34323 5.98414 7.36747C6.03776 7.39171 6.09591 7.40431 6.15475 7.40442H7.88142L3.21475 11.7289Z" fill="#18126C"/>
</svg>