<svg width="15" height="16" viewBox="0 0 15 16" fill="none" xmlns="http://www.w3.org/2000/svg">
<g clip-path="url(#clip0_606_1073)">
<path d="M13.1999 11.2552C13.1999 11.8374 12.9718 12.3958 12.5658 12.8074C12.1598 13.2191 11.6092 13.4504 11.035 13.4504H4.10162C3.52745 13.4504 2.9768 13.2191 2.5708 12.8074C2.1648 12.3958 1.93672 11.8374 1.93672 11.2552V4.22898C1.93618 3.94036 1.99179 3.65447 2.10034 3.38766C2.2089 3.12085 2.36828 2.87837 2.56936 2.67409C2.77045 2.46982 3.00928 2.30775 3.27221 2.19718C3.53513 2.0866 3.81698 2.02969 4.10162 2.02969H8.00088V1.15244H4.10162C3.70302 1.1519 3.30824 1.2311 2.93988 1.38552C2.57153 1.53994 2.23684 1.76654 1.95499 2.05233C1.67314 2.33812 1.44967 2.67749 1.29738 3.051C1.14509 3.42451 1.06697 3.82481 1.06751 4.22898V11.2552C1.06697 11.6594 1.14509 12.0597 1.29738 12.4332C1.44967 12.8067 1.67314 13.1461 1.95499 13.4319C2.23684 13.7177 2.57153 13.9442 2.93988 14.0987C3.30824 14.2531 3.70302 14.3323 4.10162 14.3318H11.0309C11.4295 14.3323 11.8243 14.2531 12.1927 14.0987C12.561 13.9442 12.8957 13.7177 13.1776 13.4319C13.4594 13.1461 13.6829 12.8067 13.8352 12.4332C13.9875 12.0597 14.0656 11.6594 14.065 11.2552V7.30141H13.1999V11.2552Z" fill="#181A20"/>
<path d="M13.6304 1.15244H9.73113V2.02968H12.5743L7.2616 7.4332L7.87492 8.0551L13.1998 2.65158V5.53456H14.065V1.59312C14.065 1.47624 14.0192 1.36415 13.9377 1.28151C13.8562 1.19886 13.7457 1.15244 13.6304 1.15244Z" fill="#181A20"/>
</g>
<defs>
<clipPath id="clip0_606_1073">
<rect width="14.6222" height="14.8267" fill="white" transform="translate(0.255127 0.328735)"/>
</clipPath>
</defs>
</svg>
