<svg width="16" height="14" viewBox="0 0 16 14" fill="none" xmlns="http://www.w3.org/2000/svg">
<path d="M7.94419 13.4141C7.63687 13.4146 7.33334 13.3453 7.05582 13.2114C6.77831 13.0775 6.53384 12.8824 6.34032 12.6403L1.78458 6.97376C1.39821 6.57156 1.09844 6.09237 0.904272 5.56655C0.710101 5.04073 0.625761 4.47975 0.656595 3.91915C0.687428 3.35855 0.832765 2.81055 1.08339 2.30989C1.33402 1.80922 1.68448 1.3668 2.11256 1.01066C2.54064 0.654522 3.03701 0.392425 3.57021 0.240981C4.10341 0.0895361 4.66183 0.0520454 5.21007 0.130884C5.75831 0.209723 6.28443 0.403172 6.75508 0.698974C7.22573 0.994776 7.63065 1.38648 7.94419 1.84927C8.08696 1.63663 8.24913 1.43807 8.42855 1.2562C9.17629 0.49309 10.1924 0.0624263 11.2533 0.0589506C11.7786 0.0572296 12.299 0.160438 12.785 0.362682C13.271 0.564927 13.7129 0.862247 14.0855 1.23767C14.4582 1.61309 14.7542 2.05925 14.9568 2.5507C15.1594 3.04214 15.2646 3.56923 15.2663 4.10187C15.268 4.63452 15.1662 5.16229 14.9667 5.65505C14.7673 6.1478 14.474 6.5959 14.1038 6.97376L9.53436 12.6403C9.34251 12.8809 9.10028 13.0751 8.82525 13.2089C8.55021 13.3427 8.24925 13.4128 7.94419 13.4141ZM4.63134 1.05697C4.036 1.05987 3.45475 1.24083 2.96038 1.5772C2.46602 1.91356 2.08053 2.39036 1.85221 2.94788C1.62389 3.50539 1.56288 4.11883 1.67684 4.71134C1.7908 5.30385 2.07466 5.84909 2.49284 6.27875L2.52483 6.31582L7.09427 12.0009C7.2002 12.1231 7.33059 12.221 7.47675 12.288C7.62291 12.355 7.78149 12.3897 7.94191 12.3897C8.10233 12.3897 8.2609 12.355 8.40706 12.288C8.55323 12.221 8.68361 12.1231 8.78954 12.0009L13.359 6.31582L13.391 6.27875C13.7143 5.95347 13.961 5.55835 14.1128 5.12287C14.2645 4.68739 14.3172 4.22279 14.2671 3.76374C14.217 3.3047 14.0653 2.86306 13.8233 2.47177C13.5813 2.08048 13.2553 1.74966 12.8696 1.50398C12.4839 1.2583 12.0485 1.1041 11.5958 1.0529C11.1432 1.0017 10.6849 1.05482 10.2553 1.20829C9.82573 1.36176 9.43585 1.61161 9.11479 1.93922C8.79373 2.26682 8.54978 2.66371 8.40114 3.10027C8.36587 3.1942 8.30329 3.27504 8.22169 3.33209C8.14008 3.38913 8.04331 3.41967 7.94419 3.41967C7.84508 3.41967 7.7483 3.38913 7.66669 3.33209C7.58509 3.27504 7.52251 3.1942 7.48725 3.10027C7.27825 2.5019 6.89132 1.98402 6.3798 1.61804C5.86828 1.25206 5.25738 1.05603 4.63134 1.05697Z" fill="#181A20"/>
</svg>
