<svg width="13" height="15" viewBox="0 0 13 15" fill="none" xmlns="http://www.w3.org/2000/svg">
<path d="M9.91047 9.29405C9.57701 9.29394 9.24692 9.36075 8.93975 9.49053C8.63258 9.6203 8.35456 9.8104 8.12217 10.0496L5.24165 8.19796C5.46823 7.61685 5.46823 6.97182 5.24165 6.39072L8.12217 4.5391C8.55485 4.98237 9.13668 5.24916 9.75487 5.28776C10.3731 5.32637 10.9836 5.13403 11.468 4.74804C11.9524 4.36205 12.2763 3.80991 12.3769 3.19866C12.4774 2.58742 12.3474 1.96062 12.0121 1.43978C11.6768 0.918944 11.16 0.541181 10.562 0.37973C9.96405 0.21828 9.32743 0.284644 8.77559 0.565957C8.22375 0.84727 7.79602 1.32349 7.57531 1.90229C7.3546 2.48109 7.35665 3.12123 7.58106 3.6986L4.70054 5.55021C4.35367 5.19406 3.90848 4.94945 3.42188 4.84765C2.93529 4.74585 2.42939 4.79149 1.96887 4.97873C1.50834 5.16597 1.11411 5.4863 0.836561 5.89879C0.559015 6.31127 0.410767 6.79715 0.410767 7.29434C0.410767 7.79152 0.559015 8.2774 0.836561 8.68989C1.11411 9.10237 1.50834 9.4227 1.96887 9.60994C2.42939 9.79718 2.93529 9.84282 3.42188 9.74102C3.90848 9.63922 4.35367 9.39461 4.70054 9.03846L7.58106 10.8901C7.38809 11.3878 7.35953 11.9343 7.49957 12.4495C7.63962 12.9646 7.9409 13.4214 8.3593 13.7529C8.7777 14.0845 9.29125 14.2733 9.82473 14.2918C10.3582 14.3103 10.8836 14.1575 11.324 13.8558C11.7644 13.5541 12.0966 13.1193 12.272 12.6151C12.4474 12.1109 12.4568 11.5637 12.2988 11.0538C12.1408 10.5438 11.8236 10.0979 11.3939 9.78124C10.9641 9.46458 10.4443 9.29385 9.91047 9.29405ZM9.91047 1.29519C10.2071 1.29519 10.497 1.38315 10.7436 1.54795C10.9902 1.71275 11.1824 1.94699 11.2959 2.22104C11.4094 2.49509 11.4391 2.79664 11.3813 3.08757C11.3234 3.3785 11.1806 3.64574 10.9709 3.85549C10.7611 4.06524 10.4939 4.20808 10.203 4.26595C9.91213 4.32382 9.61061 4.29412 9.33659 4.1806C9.06257 4.06709 8.82836 3.87485 8.66358 3.62822C8.4988 3.38158 8.41085 3.09161 8.41085 2.79498C8.41085 2.39721 8.56884 2.01574 8.85008 1.73447C9.13131 1.45321 9.51274 1.29519 9.91047 1.29519ZM2.91224 8.79412C2.61564 8.79412 2.3257 8.70616 2.07909 8.54136C1.83248 8.37656 1.64027 8.14233 1.52677 7.86828C1.41327 7.59423 1.38357 7.29267 1.44143 7.00174C1.49929 6.71081 1.64212 6.44358 1.85185 6.23383C2.06157 6.02408 2.32878 5.88124 2.61968 5.82337C2.91057 5.7655 3.2121 5.7952 3.48612 5.90871C3.76014 6.02223 3.99435 6.21446 4.15913 6.4611C4.32391 6.70774 4.41186 6.99771 4.41186 7.29434C4.41186 7.6921 4.25386 8.07358 3.97263 8.35484C3.6914 8.63611 3.30996 8.79412 2.91224 8.79412ZM9.91047 13.2935C9.61387 13.2935 9.32394 13.2055 9.07732 13.0407C8.83071 12.8759 8.6385 12.6417 8.525 12.3676C8.4115 12.0936 8.3818 11.792 8.43966 11.5011C8.49753 11.2102 8.64035 10.9429 8.85008 10.7332C9.0598 10.5234 9.32701 10.3806 9.61791 10.3227C9.9088 10.2649 10.2103 10.2946 10.4843 10.4081C10.7584 10.5216 10.9926 10.7138 11.1574 10.9605C11.3221 11.2071 11.4101 11.4971 11.4101 11.7937C11.4101 12.1915 11.2521 12.5729 10.9709 12.8542C10.6896 13.1355 10.3082 13.2935 9.91047 13.2935Z" fill="black"/>
</svg>
